<svg width="42" height="41" viewBox="0 0 42 41" fill="none" xmlns="http://www.w3.org/2000/svg">
    <path fill-rule="evenodd" clip-rule="evenodd"
          d="M21.3789 9.91634C21.7979 9.12467 22.217 8.33311 23.2137 7.01407C24.2104 5.69503 25.7849 3.84873 27.264 2.74601C28.7431 1.6433 30.1266 1.28428 31.5103 1.2073C32.894 1.13043 34.2775 1.33549 35.5181 1.89968C36.7585 2.46386 37.856 3.38707 38.7626 4.64363C39.669 5.9002 40.3846 7.49013 40.7425 9.38775C41.1003 11.2855 41.1003 13.4908 40.6471 15.5167C40.1938 17.5426 39.2873 19.3889 36.3053 23.0817C33.3233 26.7745 28.2658 32.3135 25.3555 35.4677C22.4451 38.622 21.6817 39.3912 21.3 39.7759C20.9183 40.1606 20.9183 40.1606 19.7732 38.8784C18.6282 37.5961 16.338 35.0318 13.4992 32.0058C10.6603 28.9798 7.27285 25.4921 5.10195 22.62C2.93106 19.748 1.97675 17.4912 1.47578 15.5423C0.974801 13.5933 0.927164 11.9522 1.07028 10.4648C1.21341 8.97752 1.54739 7.64397 2.01858 6.44509C2.48966 5.24631 3.09805 4.18209 3.83763 3.36141C4.57711 2.54084 5.44777 1.96383 6.57499 1.57268C7.70221 1.18164 9.08578 0.976582 10.2786 1.00213C11.4714 1.02779 12.4734 1.28428 13.6423 1.89968C14.8112 2.51518 16.1472 3.4896 17.1014 4.36148C18.0556 5.23348 18.6282 6.00273 19.2775 6.91143C19.9267 7.82014 20.6528 8.8683 21.3789 9.91634Z"
          stroke="#FF914C" stroke-width="2" stroke-miterlimit="22.9256"/>
</svg>
