<svg width="55" height="58" viewBox="0 0 55 58" fill="none" xmlns="http://www.w3.org/2000/svg"><path fill-rule="evenodd" clip-rule="evenodd" d="M33.54 48.398c-1.93 4.843-7.82 4.094-6.354-.3 1.638-4.892 8.212-4.368 6.355.3Zm-20.407-9.561c3.666-1.573 5.303 6.466 1.98 7.714-3.569 1.373-5.328-6.316-1.98-7.714Zm14.884-2.272c4.448-1.548 4.229 6.341-.22 7.764-4.35 1.373-4.399-6.191.22-7.764Zm-7.723-2.796c3.91-1.598 4.888 6.94 1.149 8.313-3.862 1.398-5.108-6.69-1.149-8.313Zm.855-6.117c-1.662-1.473-1.49-4.094-2.004-6.141-.586-2.247-1.613-3.495-2.15-6.291-.44-2.272-.611-4.394-1.785-6.441-1.368-2.372-3.764-2.571-4.472.3-.905 3.62 4.057 18.798 4.252 20.546.318 2.92-2.053 3.295-3.788.35-2.053-3.446-4.4-6.542-6.94-9.637C2.281 17.94.618 18.915.105 21.66c-.513 2.746.929 3.944 2.322 5.991 2.322 3.47 4.473 6.491 6.306 10.31 1.76 3.696 2.664 9.837 4.277 12.508 2.688-2.521 5.572-6.24 9.971-3.82 3.691 2.048 3.74 7.49 3.691 11.01 2.933 1.049 8.163-.824 10.73-2.646 3.666-2.646 4.179-2.846 7.16-6.416 2.738-3.27 3.031-5.318 4.938-8.713 1.564-2.796 3.715-5.767 5.156-8.638 1.076-2.097-.537-3.844-2.663-3.67-1.491.1-3.153 1.598-4.302 2.547-2.664 2.247-4.522 6.191-6.135 7.464-3.74 3.021-5.352-4.369-5.743-6.665-.929-5.243-.025-7.864.22-12.832.122-2.447-.294-10.41-1.1-12.533C32.783.09 29.58 3.46 29.532 8.578c-.025 4.644.464 8.389-.172 13.232-.073.549-1.05 6.24-1.857 2.77-.22-.973.269-5.117.147-6.815-.27-4.044-.93-8.288-1.296-12.457-.464-5.243-4.546-7.515-5.792-2.547-.416 1.648.562 10.136.587 12.882.024 2.896 1.515 10.436 0 12.008Z" fill="#FF914C"/><path fill-rule="evenodd" clip-rule="evenodd" d="M22.12 57.223c-1.175-2.75-3.353-4.436-5.408-3.86.832 1.376 4.209 3.993 5.408 3.86Z" fill="#FF914C"/></svg>