<svg width="54" height="54" viewBox="0 0 54 54" fill="none" xmlns="http://www.w3.org/2000/svg">
<path d="M13.6679 37.1252L13.6585 37.1225L13.6492 37.1199C10.1891 36.1697 9.18768 34.9901 8.98158 34.2968C8.78995 33.6522 9.06887 32.6066 10.4853 31.2674C11.8287 29.9973 13.8635 28.8132 16.0773 28.0325C18.2868 27.2534 20.5034 26.9359 22.2298 27.2121C24.8602 27.7841 27.3644 29.6334 28.1572 31.9148C28.7485 33.7041 29.1281 36.9707 28.9253 40.1389C28.8247 41.7113 28.5844 43.1878 28.1921 44.3943C27.7984 45.6052 27.3027 46.3866 26.7955 46.7949C26.3439 47.1009 26.0022 47.1385 25.7248 47.0984C25.3953 47.0508 24.9918 46.8658 24.5217 46.4804C23.5586 45.6905 22.6998 44.3812 22.0965 43.2979L22.0731 43.2559L22.047 43.2154C20.9218 41.4687 19.871 40.2019 18.5141 39.2355C17.1679 38.2766 15.6268 37.6905 13.6679 37.1252Z" stroke="#EEEBE2" stroke-opacity="0.24" stroke-width="3"/>
<path d="M41.985 16.6513L42.0027 16.6577L42.0206 16.6637C42.6272 16.8669 42.9755 17.1433 43.1818 17.4085C43.3888 17.6747 43.5206 18.0169 43.5532 18.4602C43.6219 19.3944 43.2325 20.6725 42.3608 21.9739C41.504 23.253 40.2921 24.3834 38.9847 25.0509C37.6874 25.7132 36.4022 25.8746 35.2503 25.4498C34.2477 25.0692 33.8617 24.4162 33.7989 23.5691C33.7272 22.601 34.0998 21.3139 34.9274 20.0301C36.6462 17.364 39.535 15.7618 41.985 16.6513Z" stroke="#EEEBE2" stroke-opacity="0.24" stroke-width="3"/>
<path d="M30.6578 8.26492L30.6842 8.2774L30.711 8.28884C31.6092 8.67229 32.1442 9.44201 32.3279 10.6074C32.5183 11.815 32.2937 13.3325 31.7001 14.8022C31.107 16.2707 30.209 17.5338 29.2239 18.2939C28.2659 19.0331 27.3437 19.2278 26.4608 18.9163C25.1935 18.4529 24.4477 16.9385 24.7557 14.5329C25.0539 12.2037 26.3004 9.87783 27.8797 8.7924C28.222 8.58932 28.8085 8.37049 29.4383 8.26154C30.1344 8.14114 30.5466 8.21225 30.6578 8.26492Z" stroke="#EEEBE2" stroke-opacity="0.24" stroke-width="3"/>
<path d="M42.4945 31.1052L42.5088 31.1107L42.5232 31.116C43.0656 31.3151 43.3494 31.5625 43.503 31.7733C43.6551 31.9821 43.7476 32.2482 43.7535 32.6031C43.7662 33.3667 43.3647 34.4438 42.4885 35.5361C40.6751 37.7965 37.8165 39.034 35.6143 38.0087L35.6143 38.0087L35.6046 38.0042C34.559 37.5264 34.2405 36.8759 34.2024 36.2215C34.1575 35.4511 34.501 34.4271 35.304 33.4098C36.9288 31.3511 39.8047 30.0553 42.4945 31.1052Z" stroke="#EEEBE2" stroke-opacity="0.24" stroke-width="3"/>
<path d="M16.953 12.9427L16.953 12.9427L16.9612 12.9455C17.6421 13.1696 18.197 13.8557 18.5038 15.1029C18.8023 16.316 18.759 17.6985 18.5574 18.6082C18.2471 19.8345 17.499 21.2332 16.565 22.1368C15.6374 23.0342 14.8319 23.2055 14.1023 22.873C13.2105 22.4619 12.616 21.6572 12.3334 20.5146C12.0453 19.3499 12.1166 17.9285 12.5218 16.5829C12.9292 15.2301 13.6266 14.1078 14.4288 13.4501C15.1798 12.8344 16.0015 12.6234 16.953 12.9427Z" stroke="#EEEBE2" stroke-opacity="0.24" stroke-width="3"/>
</svg>
