<svg width="38" height="39" viewBox="0 0 38 39" fill="none" xmlns="http://www.w3.org/2000/svg">
<path d="M1.40987 18.2588L2.56679 17.799C4.18307 21.8657 7.1219 26.2694 10.7198 29.925C14.3274 33.5904 18.4953 36.4005 22.5217 37.433C26.1132 38.3538 30.2146 37.2812 32.0996 34.2691L32.0996 34.269C32.5537 33.5434 32.5229 32.8901 32.1555 32.1781C31.7483 31.3889 30.9309 30.5702 29.8734 29.8071C28.8357 29.0584 27.6687 28.4359 26.6975 28.0074C26.2131 27.7936 25.7936 27.6353 25.4792 27.5357C25.321 27.4856 25.2038 27.455 25.127 27.4388C25.1209 27.4376 25.1154 27.4364 25.1103 27.4354C24.2736 27.5309 23.7117 28.0661 23.0496 28.9636C22.9666 29.0762 22.8751 29.2047 22.778 29.3411C22.5309 29.6884 22.2478 30.0862 21.9773 30.3985C21.5822 30.8546 21.0006 31.3985 20.1653 31.5668L19.8391 31.6325L19.5234 31.5274C19.0966 31.3852 18.6467 31.077 18.3003 30.8197C17.9136 30.5324 17.4939 30.1827 17.0958 29.8362C16.5091 29.3256 15.9194 28.7771 15.5215 28.407C15.3847 28.2797 15.2705 28.1735 15.187 28.0973C15.187 28.0972 15.1869 28.0972 15.1869 28.0972L16.0298 27.1741C13.4951 24.8601 7.25279 17.2451 7.37076 14.3409L1.40987 18.2588ZM1.40987 18.2588L2.56679 17.799C1.38149 14.8167 0.856424 10.8884 1.58168 7.67166C1.94123 6.07697 2.59307 4.71984 3.55763 3.72276C4.43489 2.81593 5.62533 2.14897 7.24719 1.89694L1.40987 18.2588ZM25.0722 27.4288C25.0685 27.4284 25.0666 27.4281 25.0667 27.4281C25.0668 27.4281 25.0686 27.4283 25.0722 27.4288Z" stroke="#FF914C" stroke-width="2.5"/>
<path d="M22.1623 1.34861L22.1623 1.34861C21.2043 1.16671 20.6446 1.27006 20.37 1.38874C20.1301 1.49242 20.1133 1.59493 20.1116 1.60533C20.1116 1.60562 20.1115 1.60583 20.1115 1.60598C20.1098 1.61471 20.1153 2.18842 21.1173 2.33977M22.1623 1.34861L21.1173 2.33977M22.1623 1.34861C29.1461 2.67452 33.3089 7.64369 35.1791 12.3386C36.118 14.6956 36.44 16.893 36.2951 18.419C36.2219 19.1902 36.0396 19.6846 35.8585 19.9483C35.7108 20.1634 35.6074 20.1829 35.5003 20.181L35.5003 20.181C35.2843 20.1772 35.2057 20.1358 35.1955 20.1301C35.1901 20.127 35.1888 20.1256 35.1874 20.1242L35.1873 20.124C35.1851 20.1217 35.1748 20.1103 35.1598 20.0815C35.1265 20.0176 35.0802 19.8879 35.0511 19.6533C35.0223 19.4214 35.0155 19.1313 35.0313 18.7743C35.404 10.3333 29.4911 3.60417 21.1173 2.33977M22.1623 1.34861L20.9306 3.57575L21.1173 2.33977" stroke="#FF914C" stroke-width="2.5"/>
<path d="M19.026 7.85631L19.026 7.85633C19.0272 7.85849 19.0284 7.86067 19.0295 7.86287C19.0514 7.9033 19.0777 7.95185 19.3067 8.02272C19.449 8.06675 19.6291 8.10556 19.8876 8.1529C19.9541 8.16508 20.0276 8.17813 20.1061 8.19207C20.307 8.22772 20.5407 8.2692 20.7741 8.31697C22.1912 8.60695 24.0069 9.20471 26.0255 11.2498L25.1358 12.1279L26.0255 11.2498C28.0915 13.343 28.7414 15.4368 28.9479 17.1711C29.0285 17.8479 29.0415 18.483 29.0517 18.977C29.0539 19.0883 29.0561 19.1924 29.0588 19.2882C29.0667 19.5659 29.0785 19.7637 29.1001 19.9152C29.1163 20.0286 29.133 20.0769 29.1361 20.0858C29.1598 20.1233 29.27 20.2421 29.4742 20.3044C29.6647 20.3625 29.7877 20.3275 29.8567 20.2808C29.9187 20.2388 30.1553 20.039 30.2513 19.3083C30.3488 18.5673 30.2796 17.396 29.8145 15.6424M19.026 7.85631L23.6307 8.11662C26.5891 9.59107 28.9276 12.2988 29.8145 15.6424M19.026 7.85631C18.9286 7.68102 18.9024 7.57347 18.8956 7.52401M19.026 7.85631L18.8956 7.52401M29.8145 15.6424L31.0227 15.322M29.8145 15.6424L31.0227 15.322M31.0227 15.322C32.9738 22.6779 28.8296 22.1662 28.0308 20.67L24.1882 6.99782C27.4505 8.62372 30.0387 11.6125 31.0227 15.322ZM18.8956 7.52401C18.8901 7.48418 18.8949 7.4706 18.8971 7.46452M18.8956 7.52401L18.8971 7.46452M18.8971 7.46452C18.8972 7.46427 18.8972 7.46404 18.8973 7.46382M18.8971 7.46452L18.8973 7.46382M18.8973 7.46382C18.9088 7.43107 18.9792 7.29271 19.306 7.06255L18.8973 7.46382ZM19.8146 7.00151C19.4615 6.99519 19.3262 7.05412 19.3075 7.06226L19.8146 7.00151ZM19.8146 7.00151C20.1845 7.00812 20.6468 7.08358 21.1562 7.21289M19.8146 7.00151L21.1562 7.21289M21.1562 7.21289C22.1746 7.47145 23.183 7.89357 23.6306 8.11657L21.1562 7.21289Z" stroke="#FF914C" stroke-width="2.5"/>
<path d="M18.0834 12.8871L18.0832 12.8871C17.7809 13.0348 17.6651 13.2552 17.6436 13.3928C17.6332 13.4594 17.6412 13.5168 17.6638 13.5693C17.6858 13.6204 17.738 13.7047 17.8711 13.7991L17.8712 13.7992C18.032 13.9132 18.1557 13.9419 18.5712 14.0383C18.6547 14.0577 18.7499 14.0798 18.8596 14.1058C19.4856 14.2546 20.2594 14.497 21.1456 15.2014L21.1456 15.2015C21.991 15.8735 22.4148 16.7849 22.6659 17.5843C22.8386 18.1343 22.9616 18.7588 23.0601 19.2587C23.0966 19.4442 23.1298 19.6126 23.1608 19.7535C23.2267 20.0523 23.2872 20.2674 23.3508 20.4238C23.3705 20.4724 23.3878 20.5083 23.4017 20.5344C23.4769 20.5267 23.6103 20.4988 23.8265 20.4172L18.0834 12.8871ZM18.0834 12.8871C18.1923 12.8338 18.4186 12.7816 18.8139 12.8381C19.2016 12.8934 19.6683 13.0425 20.174 13.2838C21.1956 13.7714 22.1947 14.5477 22.8068 15.2995C23.2709 15.8695 23.9198 17.2095 24.1578 18.5012M18.0834 12.8871L24.1578 18.5012M24.1578 18.5012C24.2755 19.1404 24.2681 19.6438 24.1759 19.9763M24.1578 18.5012L24.1759 19.9763M24.1759 19.9763C24.0979 20.2577 23.9861 20.3571 23.8266 20.4172L24.1759 19.9763ZM23.3203 20.5312C23.3215 20.5295 23.3335 20.5298 23.3526 20.5368C23.3286 20.5364 23.319 20.5329 23.3203 20.5312Z" stroke="#FF914C" stroke-width="2.5"/>
</svg>
