<svg width="47" height="47" viewBox="0 0 47 47" fill="none" xmlns="http://www.w3.org/2000/svg">
    <path d="M23.8837 29.8459C23.1554 29.8459 22.5627 30.4593 22.5627 31.2127V41.2492C22.5627 42.0028 23.1554 42.6167 23.8837 42.6167C24.6124 42.6167 25.2049 42.0028 25.2049 41.2492V31.2127C25.2049 30.4593 24.6124 29.8459 23.8837 29.8459V29.8459ZM23.8837 43.2941C22.7939 43.2941 21.9073 42.3768 21.9073 41.2492V31.2127C21.9073 30.0853 22.7939 29.1676 23.8837 29.1676C24.9737 29.1676 25.8603 30.0853 25.8603 31.2127V41.2492C25.8603 42.3768 24.9737 43.2941 23.8837 43.2941V43.2941Z"
          fill="#EEEBE2" stroke="#FF914C"/>
    <path d="M30.0905 30.0389C29.409 30.0389 28.8445 30.5694 28.7777 31.2722L27.8261 41.2602C27.7916 41.6234 27.8955 41.9792 28.1197 42.2618C28.3435 42.5435 28.6602 42.7188 29.0115 42.7545C29.055 42.7589 29.0994 42.7616 29.1431 42.7616C29.8245 42.7616 30.389 42.2314 30.4558 41.5287L31.4071 31.5406C31.4789 30.7903 30.947 30.12 30.222 30.046C30.1782 30.0413 30.1341 30.0389 30.0905 30.0389V30.0389ZM29.1431 43.4396C29.0782 43.4396 29.0121 43.4364 28.9472 43.4296C28.4217 43.3764 27.9477 43.1139 27.6129 42.6916C27.2781 42.2694 27.1221 41.7371 27.1738 41.1937L28.1255 31.2062C28.2255 30.154 29.0704 29.3611 30.0905 29.3611C30.1556 29.3611 30.2213 29.3642 30.2863 29.3711C31.3709 29.4818 32.1662 30.4849 32.0595 31.6075L31.1082 41.5947C31.0077 42.6465 30.1631 43.4396 29.1431 43.4396Z"
          fill="#EEEBE2" stroke="#FF914C"/>
    <path d="M35.8705 30.1819C35.2197 30.1819 34.6584 30.6859 34.5646 31.3533L33.176 41.2862C33.1253 41.6477 33.2139 42.0076 33.4249 42.3005C33.6364 42.593 33.9448 42.7829 34.2942 42.8353C34.3579 42.8445 34.422 42.8495 34.4856 42.8495C35.1366 42.8495 35.6976 42.3458 35.7914 41.6779L37.1802 31.7453C37.2846 30.9991 36.7827 30.3044 36.0619 30.1962C35.9981 30.1866 35.9342 30.1819 35.8705 30.1819V30.1819ZM34.4856 43.5275C34.3908 43.5275 34.2949 43.5205 34.2005 43.5061C33.6777 43.4281 33.2161 43.1438 32.9001 42.706C32.5839 42.2686 32.4516 41.7299 32.527 41.1889L33.9163 31.2565C34.056 30.2574 34.8963 29.504 35.8705 29.504C35.9651 29.504 36.0612 29.5111 36.1554 29.5254C37.2344 29.6871 37.9851 30.7259 37.8285 31.8423L36.4397 41.775C36.3 42.7743 35.4599 43.5275 34.4856 43.5275Z"
          fill="#EEEBE2" stroke="#FF914C"/>
    <path d="M17.6122 30.0389C17.5686 30.0389 17.5244 30.0413 17.4807 30.046C16.7557 30.12 16.224 30.7903 16.2955 31.5406L17.2468 41.5287C17.3137 42.2314 17.8782 42.7616 18.5598 42.7616C18.6033 42.7616 18.6477 42.7589 18.6914 42.7545C19.0426 42.7188 19.3592 42.5435 19.5832 42.2618C19.807 41.9792 19.9113 41.6234 19.8766 41.2602L18.9253 31.2722C18.8584 30.5694 18.2939 30.0389 17.6122 30.0389ZM18.5598 43.4396C17.5396 43.4396 16.6947 42.6465 16.5947 41.5947L15.6432 31.6075C15.5363 30.4849 16.3318 29.4818 17.4166 29.3711C17.4815 29.3642 17.5475 29.3611 17.6122 29.3611C18.6325 29.3611 19.4771 30.154 19.5776 31.2062L20.5287 41.1937C20.5806 41.7371 20.4246 42.2694 20.0897 42.6916C19.7548 43.1139 19.2811 43.3764 18.7557 43.4296C18.6906 43.4364 18.6248 43.4396 18.5598 43.4396V43.4396Z"
          fill="#EEEBE2" stroke="#FF914C"/>
    <path d="M11.8322 30.1819C11.7685 30.1819 11.7043 30.1866 11.6409 30.1962C10.9199 30.3044 10.4183 30.9991 10.5227 31.7453L11.9117 41.6779C12.0051 42.3458 12.5663 42.8495 13.2171 42.8495H13.2172C13.2806 42.8495 13.345 42.8445 13.4086 42.8353C13.7579 42.7829 14.0664 42.593 14.2777 42.3005C14.489 42.0076 14.5774 41.6477 14.5271 41.2862L13.1379 31.3533C13.0445 30.6859 12.4832 30.1819 11.8322 30.1819V30.1819ZM13.2171 43.5275C12.243 43.5275 11.4027 42.774 11.263 41.775L9.87388 31.8423C9.71775 30.7259 10.4684 29.6871 11.5472 29.5254C11.6414 29.5111 11.7375 29.504 11.8322 29.504C12.8066 29.504 13.6467 30.2574 13.7866 31.2565L15.1755 41.1889C15.2511 41.7299 15.1188 42.2686 14.8026 42.706C14.4866 43.1438 14.0247 43.4281 13.5022 43.5061C13.4079 43.5205 13.3121 43.5275 13.2171 43.5275V43.5275Z"
          fill="#EEEBE2" stroke="#FF914C"/>
    <path d="M2.96598 17.8533C2.24335 17.8533 1.65538 18.4616 1.65538 19.2096V24.1821C1.65538 24.93 2.24335 25.538 2.96598 25.538H3.8637L6.64636 42.9487C6.64636 44.2574 7.67543 45.3224 8.94026 45.3224H38.103C39.3677 45.3224 40.3966 44.2574 40.3966 42.9487L40.4008 42.8934L43.1794 25.538H44.0339C44.7568 25.538 45.3448 24.93 45.3448 24.1821V19.2096C45.3448 18.4616 44.7568 17.8533 44.0339 17.8533H25.2163V2.84268C25.2163 2.20023 24.7114 1.6778 24.0906 1.6778H22.7343C22.1135 1.6778 21.6086 2.20023 21.6086 2.84268V17.8533H2.96598V17.8533ZM38.103 46H8.94026C7.32352 46 6.00634 44.647 5.99129 42.9777L3.30817 26.2163H2.96598C1.88188 26.2163 1 25.3037 1 24.1821V19.2096C1 18.0879 1.88188 17.1752 2.96598 17.1752H20.9534V2.84268C20.9534 1.82654 21.7522 1 22.7343 1H24.0906C25.0727 1 25.8717 1.82654 25.8717 2.84268V17.1752H44.0339C45.1183 17.1752 46 18.0879 46 19.2096V24.1821C46 25.3037 45.1183 26.2163 44.0339 26.2163H43.7348L41.0518 42.9777C41.0368 44.647 39.7199 46 38.103 46V46Z"
          fill="#EEEBE2" stroke="#FF914C"/>
    <path d="M22.7319 1.70002C22.1124 1.70002 21.608 2.2218 21.608 2.86295V19.648L21.5359 19.7408C21.1752 20.2069 20.9846 20.7683 20.9846 21.3651C20.9846 22.7988 22.1115 23.9648 23.4969 23.9648C24.8821 23.9648 26.0091 22.7988 26.0091 21.3651C26.0091 20.6883 25.7583 20.0468 25.303 19.5594L25.2109 19.461V2.86295C25.2109 2.2218 24.7067 1.70002 24.0869 1.70002H22.7319ZM23.4969 24.6429C21.7503 24.6429 20.3292 23.1724 20.3292 21.3651C20.3292 20.6638 20.5498 19.9759 20.9529 19.4135V2.86295C20.9529 1.8481 21.7508 1.02222 22.7319 1.02222H24.0869C25.068 1.02222 25.8662 1.8481 25.8662 2.86295V19.1904C26.3822 19.7912 26.6645 20.5584 26.6645 21.3651C26.6645 23.1724 25.2436 24.6429 23.4969 24.6429Z"
          fill="#EEEBE2" stroke="#FF914C"/>
    <path d="M2.966 26.2163H44.0337V25.538H2.966V26.2163Z" fill="#EEEBE2" stroke="#FF914C"/>
</svg>
