<svg width="37" height="42" viewBox="0 0 37 42" fill="none" xmlns="http://www.w3.org/2000/svg">
    <path d="M28.0933 11.1856C28.0933 16.8209 23.5757 21.3711 18.0252 21.3711C12.4747 21.3711 7.95709 16.8209 7.95709 11.1856C7.95709 5.55025 12.4747 1 18.0252 1C23.5757 1 28.0933 5.55025 28.0933 11.1856Z"
          stroke="#FF914C" stroke-width="2"/>
    <mask id="path-2-inside-1_0_1" fill="white">
        <path d="M36.0504 41.866C36.0504 39.2219 35.5842 36.6038 34.6783 34.161C33.7725 31.7183 32.4447 29.4987 30.7709 27.6291C29.0971 25.7595 27.1101 24.2764 24.9231 23.2646C22.7362 22.2527 20.3923 21.732 18.0252 21.732C15.6581 21.732 13.3142 22.2527 11.1273 23.2646C8.94033 24.2764 6.95325 25.7595 5.27946 27.6291C3.60566 29.4987 2.27794 31.7183 1.37209 34.161C0.466235 36.6038 -2.06939e-07 39.2219 0 41.866L18.0252 41.866H36.0504Z"/>
    </mask>
    <path d="M36.0504 41.866C36.0504 39.2219 35.5842 36.6038 34.6783 34.161C33.7725 31.7183 32.4447 29.4987 30.7709 27.6291C29.0971 25.7595 27.1101 24.2764 24.9231 23.2646C22.7362 22.2527 20.3923 21.732 18.0252 21.732C15.6581 21.732 13.3142 22.2527 11.1273 23.2646C8.94033 24.2764 6.95325 25.7595 5.27946 27.6291C3.60566 29.4987 2.27794 31.7183 1.37209 34.161C0.466235 36.6038 -2.06939e-07 39.2219 0 41.866L18.0252 41.866H36.0504Z"
          stroke="#FF914C" stroke-width="4" mask="url(#path-2-inside-1_0_1)"/>
</svg>
